<svg width="8" height="18" viewBox="0 0 8 18" fill="none" xmlns="http://www.w3.org/2000/svg">
<path d="M2.068 3.42V13.86C2.068 13.86 1.91582 16.0511 4.147 16.0511C6.15891 16.0511 6.15891 13.86 6.15891 13.86V2.88C6.15891 2.88 6.15891 0 3.29528 0C0.431641 0 0.431641 2.88 0.431641 2.88V13.86C0.431641 13.86 0.431641 18 4.11346 18C7.79527 18 7.79527 13.86 7.79527 13.86V2.88C7.79527 2.43 6.97709 2.43 6.97709 2.88V13.86C6.97709 13.86 7.27491 17.1818 4.11346 17.1818C1.24982 17.1818 1.24982 13.86 1.24982 13.86V2.88C1.24982 2.88 1.24982 0.818182 3.29528 0.818182C5.34073 0.818182 5.34073 2.88 5.34073 2.88V13.86C5.34073 13.86 5.34073 15.1511 4.147 15.1511C2.9533 15.1511 2.88618 13.86 2.88618 13.86V3.42C2.88618 2.97 2.068 2.97 2.068 3.42Z" fill="#FF5C00"/>
</svg>
